<svg width="206" height="206" viewBox="0 0 206 206" fill="none" xmlns="http://www.w3.org/2000/svg">
<g clip-path="url(#clip0_845_102)">
<path d="M0 35.9302H2.39535V38.3256H0V35.9302ZM0 107.791H2.39535V110.186H0V107.791ZM0 179.651H2.39535V182.047H0V179.651ZM71.8605 35.9302H74.2558V38.3256H71.8605V35.9302ZM71.8605 107.791H74.2558V110.186H71.8605V107.791ZM71.8605 179.651H74.2558V182.047H71.8605V179.651ZM143.721 35.9302H146.116V38.3256H143.721V35.9302ZM143.721 107.791H146.116V110.186H143.721V107.791ZM143.721 179.651H146.116V182.047H143.721V179.651ZM0 47.907H2.39535V50.3023H0V47.907ZM0 119.767H2.39535V122.163H0V119.767ZM0 191.628H2.39535V194.023H0V191.628ZM71.8605 47.907H74.2558V50.3023H71.8605V47.907ZM71.8605 119.767H74.2558V122.163H71.8605V119.767ZM71.8605 191.628H74.2558V194.023H71.8605V191.628ZM143.721 47.907H146.116V50.3023H143.721V47.907ZM143.721 119.767H146.116V122.163H143.721V119.767ZM143.721 191.628H146.116V194.023H143.721V191.628ZM0 59.8837H2.39535V62.2791H0V59.8837ZM0 131.744H2.39535V134.14H0V131.744ZM0 203.605H2.39535V206H0V203.605ZM71.8605 59.8837H74.2558V62.2791H71.8605V59.8837ZM71.8605 131.744H74.2558V134.14H71.8605V131.744ZM71.8605 203.605H74.2558V206H71.8605V203.605ZM143.721 59.8837H146.116V62.2791H143.721V59.8837ZM143.721 131.744H146.116V134.14H143.721V131.744ZM143.721 203.605H146.116V206H143.721V203.605ZM0 11.9767H2.39535V14.3721H0V11.9767ZM0 83.8372H2.39535V86.2326H0V83.8372ZM0 155.698H2.39535V158.093H0V155.698ZM71.8605 11.9767H74.2558V14.3721H71.8605V11.9767ZM71.8605 83.8372H74.2558V86.2326H71.8605V83.8372ZM71.8605 155.698H74.2558V158.093H71.8605V155.698ZM143.721 11.9767H146.116V14.3721H143.721V11.9767ZM143.721 83.8372H146.116V86.2326H143.721V83.8372ZM143.721 155.698H146.116V158.093H143.721V155.698ZM23.9535 35.9302H26.3488V38.3256H23.9535V35.9302ZM23.9535 107.791H26.3488V110.186H23.9535V107.791ZM23.9535 179.651H26.3488V182.047H23.9535V179.651ZM95.814 35.9302H98.2093V38.3256H95.814V35.9302ZM95.814 107.791H98.2093V110.186H95.814V107.791ZM95.814 179.651H98.2093V182.047H95.814V179.651ZM167.674 35.9302H170.07V38.3256H167.674V35.9302ZM167.674 107.791H170.07V110.186H167.674V107.791ZM167.674 179.651H170.07V182.047H167.674V179.651ZM23.9535 47.907H26.3488V50.3023H23.9535V47.907ZM23.9535 119.767H26.3488V122.163H23.9535V119.767ZM23.9535 191.628H26.3488V194.023H23.9535V191.628ZM95.814 47.907H98.2093V50.3023H95.814V47.907ZM95.814 119.767H98.2093V122.163H95.814V119.767ZM95.814 191.628H98.2093V194.023H95.814V191.628ZM167.674 47.907H170.07V50.3023H167.674V47.907ZM167.674 119.767H170.07V122.163H167.674V119.767ZM167.674 191.628H170.07V194.023H167.674V191.628ZM23.9535 59.8837H26.3488V62.2791H23.9535V59.8837ZM23.9535 131.744H26.3488V134.14H23.9535V131.744ZM23.9535 203.605H26.3488V206H23.9535V203.605ZM95.814 59.8837H98.2093V62.2791H95.814V59.8837ZM95.814 131.744H98.2093V134.14H95.814V131.744ZM95.814 203.605H98.2093V206H95.814V203.605ZM167.674 59.8837H170.07V62.2791H167.674V59.8837ZM167.674 131.744H170.07V134.14H167.674V131.744ZM167.674 203.605H170.07V206H167.674V203.605ZM47.907 35.9302H50.3023V38.3256H47.907V35.9302ZM47.907 107.791H50.3023V110.186H47.907V107.791ZM47.907 179.651H50.3023V182.047H47.907V179.651ZM119.767 35.9302H122.163V38.3256H119.767V35.9302ZM119.767 107.791H122.163V110.186H119.767V107.791ZM119.767 179.651H122.163V182.047H119.767V179.651ZM191.628 35.9302H194.023V38.3256H191.628V35.9302ZM191.628 107.791H194.023V110.186H191.628V107.791ZM191.628 179.651H194.023V182.047H191.628V179.651ZM47.907 47.907H50.3023V50.3023H47.907V47.907ZM47.907 119.767H50.3023V122.163H47.907V119.767ZM47.907 191.628H50.3023V194.023H47.907V191.628ZM119.767 47.907H122.163V50.3023H119.767V47.907ZM119.767 119.767H122.163V122.163H119.767V119.767ZM119.767 191.628H122.163V194.023H119.767V191.628ZM191.628 47.907H194.023V50.3023H191.628V47.907ZM191.628 119.767H194.023V122.163H191.628V119.767ZM191.628 191.628H194.023V194.023H191.628V191.628ZM47.907 59.8837H50.3023V62.2791H47.907V59.8837ZM47.907 131.744H50.3023V134.14H47.907V131.744ZM47.907 203.605H50.3023V206H47.907V203.605ZM119.767 59.8837H122.163V62.2791H119.767V59.8837ZM119.767 131.744H122.163V134.14H119.767V131.744ZM119.767 203.605H122.163V206H119.767V203.605ZM191.628 59.8837H194.023V62.2791H191.628V59.8837ZM191.628 131.744H194.023V134.14H191.628V131.744ZM191.628 203.605H194.023V206H191.628V203.605ZM23.9535 11.9767H26.3488V14.3721H23.9535V11.9767ZM23.9535 83.8372H26.3488V86.2326H23.9535V83.8372ZM23.9535 155.698H26.3488V158.093H23.9535V155.698ZM95.814 11.9767H98.2093V14.3721H95.814V11.9767ZM95.814 83.8372H98.2093V86.2326H95.814V83.8372ZM95.814 155.698H98.2093V158.093H95.814V155.698ZM167.674 11.9767H170.07V14.3721H167.674V11.9767ZM167.674 83.8372H170.07V86.2326H167.674V83.8372ZM167.674 155.698H170.07V158.093H167.674V155.698ZM47.907 11.9767H50.3023V14.3721H47.907V11.9767ZM47.907 83.8372H50.3023V86.2326H47.907V83.8372ZM47.907 155.698H50.3023V158.093H47.907V155.698ZM119.767 11.9767H122.163V14.3721H119.767V11.9767ZM119.767 83.8372H122.163V86.2326H119.767V83.8372ZM119.767 155.698H122.163V158.093H119.767V155.698ZM191.628 11.9767H194.023V14.3721H191.628V11.9767ZM191.628 83.8372H194.023V86.2326H191.628V83.8372ZM191.628 155.698H194.023V158.093H191.628V155.698ZM0 23.9535H2.39535V26.3488H0V23.9535ZM0 95.814H2.39535V98.2093H0V95.814ZM0 167.674H2.39535V170.07H0V167.674ZM71.8605 23.9535H74.2558V26.3488H71.8605V23.9535ZM71.8605 95.814H74.2558V98.2093H71.8605V95.814ZM71.8605 167.674H74.2558V170.07H71.8605V167.674ZM143.721 23.9535H146.116V26.3488H143.721V23.9535ZM143.721 95.814H146.116V98.2093H143.721V95.814ZM143.721 167.674H146.116V170.07H143.721V167.674ZM0 0H2.39535V2.39535H0V0ZM0 71.8605H2.39535V74.2558H0V71.8605ZM0 143.721H2.39535V146.116H0V143.721ZM71.8605 0H74.2558V2.39535H71.8605V0ZM71.8605 71.8605H74.2558V74.2558H71.8605V71.8605ZM71.8605 143.721H74.2558V146.116H71.8605V143.721ZM143.721 0H146.116V2.39535H143.721V0ZM143.721 71.8605H146.116V74.2558H143.721V71.8605ZM143.721 143.721H146.116V146.116H143.721V143.721ZM23.9535 23.9535H26.3488V26.3488H23.9535V23.9535ZM23.9535 95.814H26.3488V98.2093H23.9535V95.814ZM23.9535 167.674H26.3488V170.07H23.9535V167.674ZM95.814 23.9535H98.2093V26.3488H95.814V23.9535ZM95.814 95.814H98.2093V98.2093H95.814V95.814ZM95.814 167.674H98.2093V170.07H95.814V167.674ZM167.674 23.9535H170.07V26.3488H167.674V23.9535ZM167.674 95.814H170.07V98.2093H167.674V95.814ZM167.674 167.674H170.07V170.07H167.674V167.674ZM47.907 23.9535H50.3023V26.3488H47.907V23.9535ZM47.907 95.814H50.3023V98.2093H47.907V95.814ZM47.907 167.674H50.3023V170.07H47.907V167.674ZM119.767 23.9535H122.163V26.3488H119.767V23.9535ZM119.767 95.814H122.163V98.2093H119.767V95.814ZM119.767 167.674H122.163V170.07H119.767V167.674ZM191.628 23.9535H194.023V26.3488H191.628V23.9535ZM191.628 95.814H194.023V98.2093H191.628V95.814ZM191.628 167.674H194.023V170.07H191.628V167.674ZM23.9535 0H26.3488V2.39535H23.9535V0ZM23.9535 71.8605H26.3488V74.2558H23.9535V71.8605ZM23.9535 143.721H26.3488V146.116H23.9535V143.721ZM95.814 0H98.2093V2.39535H95.814V0ZM95.814 71.8605H98.2093V74.2558H95.814V71.8605ZM95.814 143.721H98.2093V146.116H95.814V143.721ZM167.674 0H170.07V2.39535H167.674V0ZM167.674 71.8605H170.07V74.2558H167.674V71.8605ZM167.674 143.721H170.07V146.116H167.674V143.721ZM47.907 0H50.3023V2.39535H47.907V0ZM47.907 71.8605H50.3023V74.2558H47.907V71.8605ZM47.907 143.721H50.3023V146.116H47.907V143.721ZM119.767 0H122.163V2.39535H119.767V0ZM119.767 71.8605H122.163V74.2558H119.767V71.8605ZM119.767 143.721H122.163V146.116H119.767V143.721ZM191.628 0H194.023V2.39535H191.628V0ZM191.628 71.8605H194.023V74.2558H191.628V71.8605ZM191.628 143.721H194.023V146.116H191.628V143.721ZM11.9767 35.9302H14.3721V38.3256H11.9767V35.9302ZM11.9767 107.791H14.3721V110.186H11.9767V107.791ZM11.9767 179.651H14.3721V182.047H11.9767V179.651ZM83.8372 35.9302H86.2326V38.3256H83.8372V35.9302ZM83.8372 107.791H86.2326V110.186H83.8372V107.791ZM83.8372 179.651H86.2326V182.047H83.8372V179.651ZM155.698 35.9302H158.093V38.3256H155.698V35.9302ZM155.698 107.791H158.093V110.186H155.698V107.791ZM155.698 179.651H158.093V182.047H155.698V179.651ZM11.9767 47.907H14.3721V50.3023H11.9767V47.907ZM11.9767 119.767H14.3721V122.163H11.9767V119.767ZM11.9767 191.628H14.3721V194.023H11.9767V191.628ZM83.8372 47.907H86.2326V50.3023H83.8372V47.907ZM83.8372 119.767H86.2326V122.163H83.8372V119.767ZM83.8372 191.628H86.2326V194.023H83.8372V191.628ZM155.698 47.907H158.093V50.3023H155.698V47.907ZM155.698 119.767H158.093V122.163H155.698V119.767ZM155.698 191.628H158.093V194.023H155.698V191.628ZM11.9767 59.8837H14.3721V62.2791H11.9767V59.8837ZM11.9767 131.744H14.3721V134.14H11.9767V131.744ZM11.9767 203.605H14.3721V206H11.9767V203.605ZM83.8372 59.8837H86.2326V62.2791H83.8372V59.8837ZM83.8372 131.744H86.2326V134.14H83.8372V131.744ZM83.8372 203.605H86.2326V206H83.8372V203.605ZM155.698 59.8837H158.093V62.2791H155.698V59.8837ZM155.698 131.744H158.093V134.14H155.698V131.744ZM155.698 203.605H158.093V206H155.698V203.605ZM11.9767 11.9767H14.3721V14.3721H11.9767V11.9767ZM11.9767 83.8372H14.3721V86.2326H11.9767V83.8372ZM11.9767 155.698H14.3721V158.093H11.9767V155.698ZM83.8372 11.9767H86.2326V14.3721H83.8372V11.9767ZM83.8372 83.8372H86.2326V86.2326H83.8372V83.8372ZM83.8372 155.698H86.2326V158.093H83.8372V155.698ZM155.698 11.9767H158.093V14.3721H155.698V11.9767ZM155.698 83.8372H158.093V86.2326H155.698V83.8372ZM155.698 155.698H158.093V158.093H155.698V155.698ZM35.9302 35.9302H38.3256V38.3256H35.9302V35.9302ZM35.9302 107.791H38.3256V110.186H35.9302V107.791ZM35.9302 179.651H38.3256V182.047H35.9302V179.651ZM107.791 35.9302H110.186V38.3256H107.791V35.9302ZM107.791 107.791H110.186V110.186H107.791V107.791ZM107.791 179.651H110.186V182.047H107.791V179.651ZM179.651 35.9302H182.047V38.3256H179.651V35.9302ZM179.651 107.791H182.047V110.186H179.651V107.791ZM179.651 179.651H182.047V182.047H179.651V179.651ZM35.9302 47.907H38.3256V50.3023H35.9302V47.907ZM35.9302 119.767H38.3256V122.163H35.9302V119.767ZM35.9302 191.628H38.3256V194.023H35.9302V191.628ZM107.791 47.907H110.186V50.3023H107.791V47.907ZM107.791 119.767H110.186V122.163H107.791V119.767ZM107.791 191.628H110.186V194.023H107.791V191.628ZM179.651 47.907H182.047V50.3023H179.651V47.907ZM179.651 119.767H182.047V122.163H179.651V119.767ZM179.651 191.628H182.047V194.023H179.651V191.628ZM35.9302 59.8837H38.3256V62.2791H35.9302V59.8837ZM35.9302 131.744H38.3256V134.14H35.9302V131.744ZM35.9302 203.605H38.3256V206H35.9302V203.605ZM107.791 59.8837H110.186V62.2791H107.791V59.8837ZM107.791 131.744H110.186V134.14H107.791V131.744ZM107.791 203.605H110.186V206H107.791V203.605ZM179.651 59.8837H182.047V62.2791H179.651V59.8837ZM179.651 131.744H182.047V134.14H179.651V131.744ZM179.651 203.605H182.047V206H179.651V203.605ZM59.8837 35.9302H62.2791V38.3256H59.8837V35.9302ZM59.8837 107.791H62.2791V110.186H59.8837V107.791ZM59.8837 179.651H62.2791V182.047H59.8837V179.651ZM131.744 35.9302H134.14V38.3256H131.744V35.9302ZM131.744 107.791H134.14V110.186H131.744V107.791ZM131.744 179.651H134.14V182.047H131.744V179.651ZM203.605 35.9302H206V38.3256H203.605V35.9302ZM203.605 107.791H206V110.186H203.605V107.791ZM203.605 179.651H206V182.047H203.605V179.651ZM59.8837 47.907H62.2791V50.3023H59.8837V47.907ZM59.8837 119.767H62.2791V122.163H59.8837V119.767ZM59.8837 191.628H62.2791V194.023H59.8837V191.628ZM131.744 47.907H134.14V50.3023H131.744V47.907ZM131.744 119.767H134.14V122.163H131.744V119.767ZM131.744 191.628H134.14V194.023H131.744V191.628ZM203.605 47.907H206V50.3023H203.605V47.907ZM203.605 119.767H206V122.163H203.605V119.767ZM203.605 191.628H206V194.023H203.605V191.628ZM59.8837 59.8837H62.2791V62.2791H59.8837V59.8837ZM59.8837 131.744H62.2791V134.14H59.8837V131.744ZM59.8837 203.605H62.2791V206H59.8837V203.605ZM131.744 59.8837H134.14V62.2791H131.744V59.8837ZM131.744 131.744H134.14V134.14H131.744V131.744ZM131.744 203.605H134.14V206H131.744V203.605ZM203.605 59.8837H206V62.2791H203.605V59.8837ZM203.605 131.744H206V134.14H203.605V131.744ZM203.605 203.605H206V206H203.605V203.605ZM35.9302 11.9767H38.3256V14.3721H35.9302V11.9767ZM35.9302 83.8372H38.3256V86.2326H35.9302V83.8372ZM35.9302 155.698H38.3256V158.093H35.9302V155.698ZM107.791 11.9767H110.186V14.3721H107.791V11.9767ZM107.791 83.8372H110.186V86.2326H107.791V83.8372ZM107.791 155.698H110.186V158.093H107.791V155.698ZM179.651 11.9767H182.047V14.3721H179.651V11.9767ZM179.651 83.8372H182.047V86.2326H179.651V83.8372ZM179.651 155.698H182.047V158.093H179.651V155.698ZM59.8837 11.9767H62.2791V14.3721H59.8837V11.9767ZM59.8837 83.8372H62.2791V86.2326H59.8837V83.8372ZM59.8837 155.698H62.2791V158.093H59.8837V155.698ZM131.744 11.9767H134.14V14.3721H131.744V11.9767ZM131.744 83.8372H134.14V86.2326H131.744V83.8372ZM131.744 155.698H134.14V158.093H131.744V155.698ZM203.605 11.9767H206V14.3721H203.605V11.9767ZM203.605 83.8372H206V86.2326H203.605V83.8372ZM203.605 155.698H206V158.093H203.605V155.698ZM11.9767 23.9535H14.3721V26.3488H11.9767V23.9535ZM11.9767 95.814H14.3721V98.2093H11.9767V95.814ZM11.9767 167.674H14.3721V170.07H11.9767V167.674ZM83.8372 23.9535H86.2326V26.3488H83.8372V23.9535ZM83.8372 95.814H86.2326V98.2093H83.8372V95.814ZM83.8372 167.674H86.2326V170.07H83.8372V167.674ZM155.698 23.9535H158.093V26.3488H155.698V23.9535ZM155.698 95.814H158.093V98.2093H155.698V95.814ZM155.698 167.674H158.093V170.07H155.698V167.674ZM11.9767 0H14.3721V2.39535H11.9767V0ZM11.9767 71.8605H14.3721V74.2558H11.9767V71.8605ZM11.9767 143.721H14.3721V146.116H11.9767V143.721ZM83.8372 0H86.2326V2.39535H83.8372V0ZM83.8372 71.8605H86.2326V74.2558H83.8372V71.8605ZM83.8372 143.721H86.2326V146.116H83.8372V143.721ZM155.698 0H158.093V2.39535H155.698V0ZM155.698 71.8605H158.093V74.2558H155.698V71.8605ZM155.698 143.721H158.093V146.116H155.698V143.721ZM35.9302 23.9535H38.3256V26.3488H35.9302V23.9535ZM35.9302 95.814H38.3256V98.2093H35.9302V95.814ZM35.9302 167.674H38.3256V170.07H35.9302V167.674ZM107.791 23.9535H110.186V26.3488H107.791V23.9535ZM107.791 95.814H110.186V98.2093H107.791V95.814ZM107.791 167.674H110.186V170.07H107.791V167.674ZM179.651 23.9535H182.047V26.3488H179.651V23.9535ZM179.651 95.814H182.047V98.2093H179.651V95.814ZM179.651 167.674H182.047V170.07H179.651V167.674ZM59.8837 23.9535H62.2791V26.3488H59.8837V23.9535ZM59.8837 95.814H62.2791V98.2093H59.8837V95.814ZM59.8837 167.674H62.2791V170.07H59.8837V167.674ZM131.744 23.9535H134.14V26.3488H131.744V23.9535ZM131.744 95.814H134.14V98.2093H131.744V95.814ZM131.744 167.674H134.14V170.07H131.744V167.674ZM203.605 23.9535H206V26.3488H203.605V23.9535ZM203.605 95.814H206V98.2093H203.605V95.814ZM203.605 167.674H206V170.07H203.605V167.674ZM35.9302 0H38.3256V2.39535H35.9302V0ZM35.9302 71.8605H38.3256V74.2558H35.9302V71.8605ZM35.9302 143.721H38.3256V146.116H35.9302V143.721ZM107.791 0H110.186V2.39535H107.791V0ZM107.791 71.8605H110.186V74.2558H107.791V71.8605ZM107.791 143.721H110.186V146.116H107.791V143.721ZM179.651 0H182.047V2.39535H179.651V0ZM179.651 71.8605H182.047V74.2558H179.651V71.8605ZM179.651 143.721H182.047V146.116H179.651V143.721ZM59.8837 0H62.2791V2.39535H59.8837V0ZM59.8837 71.8605H62.2791V74.2558H59.8837V71.8605ZM59.8837 143.721H62.2791V146.116H59.8837V143.721ZM131.744 0H134.14V2.39535H131.744V0ZM131.744 71.8605H134.14V74.2558H131.744V71.8605ZM131.744 143.721H134.14V146.116H131.744V143.721ZM203.605 0H206V2.39535H203.605V0ZM203.605 71.8605H206V74.2558H203.605V71.8605ZM203.605 143.721H206V146.116H203.605V143.721Z" fill="#DADFE7"/>
</g>
<defs>
<clipPath id="clip0_845_102">
<rect width="206" height="206" fill="white"/>
</clipPath>
</defs>
</svg>
