<svg width="76" height="79" viewBox="0 0 76 79" fill="none" xmlns="http://www.w3.org/2000/svg">
<g clip-path="url(#clip0_613_2)">
<path d="M36.9661 79.3794C34.2533 77.967 31.5387 76.5527 28.8296 75.1403C26.1206 73.7278 23.4096 72.3228 20.7006 70.9085C20.7006 65.9241 20.7006 60.9229 20.7006 55.9292C20.7006 50.9448 20.7006 45.9436 20.7006 40.9499C19.2217 40.9183 17.7429 40.8867 16.264 40.8551C16.264 45.4827 16.264 50.1103 16.264 54.7305C16.264 59.3506 16.264 63.9857 16.264 68.5984C13.5513 67.1767 10.8366 65.7642 8.12757 64.3518C5.41851 62.9394 2.7076 61.5343 -0.00146484 60.12C-0.00146484 53.318 -0.00146484 46.5067 -0.00146484 39.7028C-0.00146484 32.8915 -0.00146484 26.0821 -0.00146484 19.2633C2.7076 17.8416 5.41851 16.4366 8.12757 15.0241C10.8366 13.6117 13.5513 12.1974 16.264 10.7775C16.264 14.6283 16.264 18.4697 16.264 22.3112C16.264 26.1527 16.264 29.9867 16.264 33.8282C17.7429 33.6702 19.2217 33.5178 20.7006 33.3599C20.7006 29.2154 20.7006 25.0655 20.7006 20.9211C20.7006 16.7767 20.7006 12.6267 20.7006 8.46556C23.4096 7.05312 26.1206 5.64811 28.8296 4.23381C31.5387 2.82137 34.2533 1.40707 36.9661 -0.00537109C36.9661 13.227 36.9661 26.4668 36.9661 39.6917C36.9661 52.9166 36.9661 66.1489 36.9661 79.3739V79.3794Z" fill="white"/>
<path d="M40.2224 77.9259C40.2224 65.186 40.2224 52.4387 40.2224 39.7007C40.2224 26.9609 40.2224 14.2136 40.2224 1.46631C43.3286 3.03672 46.4421 4.60527 49.5464 6.16454C52.6544 7.7238 55.7643 9.28306 58.8741 10.846C61.1007 11.9667 63.1771 13.2082 65.1216 14.5333C67.0477 15.8453 68.8253 17.2243 70.4841 18.6163C73.7572 21.3632 75.4216 23.8888 75.4216 26.4256C75.4216 28.3306 75.4216 30.2281 75.4216 32.1349C75.4216 33.5733 74.633 34.6903 73.1078 35.6028C71.5547 36.5339 69.2557 37.3293 66.1793 37.898C69.4283 38.5429 71.8479 39.422 73.4863 40.4404C75.0895 41.4366 75.9208 42.6111 75.9208 44.1109C75.9208 46.7388 75.9208 49.3611 75.9208 51.989C75.9208 54.6652 74.3491 57.2931 71.2727 60.1087C69.6936 61.5546 68.0125 62.9782 66.1682 64.2921C64.3145 65.6135 62.3217 66.8401 60.1785 67.9161C56.8534 69.585 53.5228 71.2595 50.1977 72.9322C46.8763 74.6029 43.5475 76.2681 40.2243 77.9259H40.2224ZM60.4884 31.3543C60.4884 28.1819 60.4884 24.9928 60.4884 21.811C60.4884 19.8504 59.0133 18.319 56.0648 17.2225C56.0648 20.0065 56.0648 22.7905 56.0648 25.567C56.0648 28.3436 56.0648 31.1276 56.0648 33.9042C59.0133 34.1922 60.4884 33.3448 60.4884 31.3525V31.3543ZM60.4884 57.5644C60.4884 52.8364 60.4884 48.0992 60.4884 43.3638C60.4884 41.4031 59.0133 40.4478 56.0648 40.4869C56.0648 44.1109 56.0648 47.7275 56.0648 51.3441C56.0648 54.9607 56.0648 58.5773 56.0648 62.1939C59.0133 61.0974 60.4884 59.5567 60.4884 57.5663V57.5644Z" fill="white"/>
<path fill-rule="evenodd" clip-rule="evenodd" d="M8.65078 35.6884C8.65078 35.6884 15.1859 33.6534 21.6487 36.114C23.161 34.3168 25.254 32.9973 27.9463 32.9973C30.468 32.9973 33.0045 34.5473 34.1976 36.8146C34.771 35.3 37.7435 28.1393 43.7647 24.8907C50.5188 21.248 55.4748 18.2057 57.4324 12.5615C57.4324 12.5615 58.1913 17.2839 51.5968 22.049C45.0023 26.8123 42.245 28.4534 40.807 30.3341C40.807 30.3341 45.4829 26.8123 50.079 24.1305C54.6751 21.4488 56.7923 17.8861 56.7923 17.8861C56.7923 17.8861 56.5121 24.9315 44.1636 30.9753C44.1636 30.9753 49.5594 29.9754 54.3949 24.7717C54.3949 24.7717 53.5562 30.6965 44.724 34.3782C44.724 34.3782 48.8803 33.8578 52.1572 30.336C52.1572 30.336 50.8379 34.1384 43.2043 35.3C35.9826 36.3983 33.9452 37.4986 33.7467 37.6156L33.73 37.6268C32.7837 35.3613 30.5515 33.7705 27.9463 33.7705C26.2931 33.7705 24.7901 34.4116 23.6694 35.4598C23.7918 35.4115 23.9273 35.3836 24.0683 35.3836C24.6472 35.3836 25.1167 35.8352 25.1167 36.3909C25.1167 36.8369 24.8142 37.2142 24.3967 37.3462C25.6566 38.0821 26.859 39.0281 27.9445 40.238C26.7031 39.2846 25.9554 38.9965 24.4914 38.7326C24.4914 38.7326 24.8755 44.4009 29.0318 49.4281C33.1882 54.4553 39.7419 54.4553 39.7419 54.4553C39.7419 54.4553 31.752 55.2396 26.9481 48.4227C22.1441 41.6058 25.5472 38.3813 17.6742 36.2682C15.121 35.7906 12.1058 35.523 8.64893 35.6903L8.65078 35.6884Z" fill="#B63336"/>
<path fill-rule="evenodd" clip-rule="evenodd" d="M42.501 54.5112C41.2318 59.6834 37.1255 63.7367 31.9282 64.9224C32.2733 64.2831 32.4682 63.5527 32.4682 62.7759C32.4682 62.4655 32.4366 62.1644 32.3773 61.8727C36.7786 61.1237 40.4877 58.3341 42.4991 54.5112H42.501Z" fill="#B63336"/>
<path fill-rule="evenodd" clip-rule="evenodd" d="M42.9595 45.9956C47.2661 49.2888 49.7433 55.4422 49.7433 59.8152C49.7433 64.1882 49.0586 65.4538 47.8432 67.881C47.5148 64.9168 46.3959 63.417 45.4217 62.6624C45.6463 61.447 45.7632 60.1925 45.7632 58.912C45.7632 56.1076 45.2009 53.4369 44.186 51.0023C45.2381 51.9297 46.5889 53.6655 47.704 56.8863C47.704 56.8863 48.3869 51.8702 42.9595 45.9956Z" fill="#B63336"/>
<path fill-rule="evenodd" clip-rule="evenodd" d="M29.3937 44.8656C29.3937 44.8656 28.5142 39.9425 34.5892 37.9409C40.6641 35.9394 44.301 37.021 51.7342 33.8188C51.7342 33.8188 49.4166 37.2607 43.7016 38.2216C37.9866 39.1824 35.5893 39.9035 35.5893 39.9035C35.5893 39.9035 39.5453 39.3032 42.9038 39.1434C46.2604 38.9836 50.1366 37.4224 50.2164 36.982C50.2164 36.982 48.4573 41.985 37.1071 41.8252C37.1071 41.8252 41.3043 42.9867 47.0583 40.8253C47.0583 40.8253 44.4531 44.6185 36.9067 44.5887C36.9067 44.5887 40.2633 45.3488 43.3806 44.1092C43.3806 44.1092 42.2617 47.0716 34.7877 45.6704C30.3864 44.9009 29.5978 44.8229 29.3919 44.8693L29.3937 44.8656Z" fill="#B63336"/>
<path d="M24.3579 36.8331C24.5505 36.8331 24.7067 36.6766 24.7067 36.4837C24.7067 36.2907 24.5505 36.1343 24.3579 36.1343C24.1652 36.1343 24.009 36.2907 24.009 36.4837C24.009 36.6766 24.1652 36.8331 24.3579 36.8331Z" fill="#B63336"/>
<path fill-rule="evenodd" clip-rule="evenodd" d="M26.0481 39.896C26.0481 39.896 28.1857 40.5558 29.0448 41.7173C29.0448 41.7173 25.9071 46.7408 34.5 51.1435C34.5 51.1435 27.1057 50.9837 26.0481 39.896Z" fill="#B63336"/>
<path fill-rule="evenodd" clip-rule="evenodd" d="M42.1632 53.8047C42.1632 53.8047 39.8253 56.1668 36.4891 56.7076C36.4891 56.7076 36.7692 58.7092 35.051 60.0306C35.051 60.0306 40.0368 57.8785 42.1651 53.8065L42.1632 53.8047Z" fill="#B63336"/>
<path fill-rule="evenodd" clip-rule="evenodd" d="M42.3824 58.3081C42.3824 58.3081 40.4248 63.7516 34.1494 66.0728C34.1494 66.0728 36.0272 68.6747 34.2292 71.0368C34.2292 71.0368 40.9425 65.3926 42.3824 58.3081Z" fill="#B63336"/>
<path fill-rule="evenodd" clip-rule="evenodd" d="M43.7016 52.7847C43.7016 52.7847 45.0209 60.7111 38.7065 68.4368C38.7065 68.4368 40.5454 69.838 39.625 74.3616C39.625 74.3616 47.1455 65.0227 43.7016 52.7865V52.7847Z" fill="#B63336"/>
</g>
<defs>
<clipPath id="clip0_613_2">
<rect width="76" height="79" fill="white"/>
</clipPath>
</defs>
</svg>
