<svg width="46" height="12" viewBox="0 0 46 12" fill="none" xmlns="http://www.w3.org/2000/svg">
<path d="M18.1536 7.02853L20.6918 10.2857H18.6875L16.4286 7.29431V10.2857H14.7857V1.71431H16.4286V6.75431L18.515 4.28569H20.6096L18.1536 7.02853ZM11.5821 4.11431C11.2224 4.11993 10.8694 4.21644 10.5532 4.39557C10.2371 4.57469 9.96724 4.8311 9.76682 5.14284V4.28569H8.21432V10.2857H9.85712V7.48284C9.83554 7.2794 9.85433 7.07351 9.91231 6.87797C9.97029 6.68243 10.0662 6.50144 10.1941 6.34626C10.322 6.19108 10.4792 6.06503 10.6558 5.97596C10.8324 5.88689 11.0247 5.83671 11.2207 5.82853C12.1736 5.82853 12.3214 6.80569 12.3214 7.48284V10.2857H13.9643V7.10569C13.9643 5.22 13.3646 4.11431 11.615 4.11431H11.5821ZM26.2857 7.42284C26.292 7.54847 26.292 7.67437 26.2857 7.8H21.9732V7.86C22.0432 8.21744 22.233 8.53714 22.5085 8.76177C22.7839 8.98639 23.1271 9.10124 23.4764 9.08569C23.7535 9.09826 24.0302 9.05237 24.2899 8.95076C24.5496 8.84914 24.787 8.6939 24.9879 8.49431L26.0804 9.35147C25.7341 9.72018 25.3176 10.0091 24.8578 10.1995C24.398 10.39 23.905 10.4777 23.4107 10.4572C23.0013 10.4842 22.5911 10.4192 22.2079 10.2666C21.8246 10.114 21.4772 9.87735 21.1891 9.57266C20.901 9.26797 20.679 8.90231 20.5379 8.50038C20.3968 8.09846 20.3401 7.66962 20.3714 7.24284C20.363 6.82154 20.4379 6.40294 20.5913 6.01314C20.7447 5.62334 20.9734 5.27069 21.2632 4.97717C21.553 4.68366 21.8976 4.45556 22.2755 4.30711C22.6535 4.15866 23.0567 4.09303 23.46 4.11431C25.0043 4.11431 26.2857 5.25431 26.2857 7.42284ZM24.7579 6.68569C24.7518 6.51591 24.7127 6.34919 24.6429 6.19569C24.5732 6.04219 24.4741 5.90513 24.3519 5.79286C24.2298 5.68058 24.0869 5.59545 23.9322 5.54264C23.7774 5.48983 23.614 5.47045 23.4518 5.48569C22.7295 5.40422 22.0753 5.93513 21.9732 6.68569H24.7579ZM1.64288 1.71431H0V10.2857H4.92856V8.57156H1.64288V1.71431ZM31.2143 1.71431H32.8571V10.2857H31.3046V9.68569C31.1075 9.93913 30.8562 10.1409 30.571 10.2749C30.2857 10.4088 29.9743 10.4713 29.6618 10.4572C29.28 10.4469 28.9042 10.3553 28.5576 10.188C28.2109 10.0206 27.9007 9.78107 27.6461 9.48403C27.3914 9.18699 27.1977 8.83874 27.0768 8.4607C26.9558 8.08265 26.9103 7.68278 26.9429 7.28569C26.9041 6.88803 26.9451 6.4863 27.0632 6.10606C27.1813 5.72583 27.374 5.37541 27.6289 5.07711C27.8839 4.7788 28.1956 4.53915 28.5441 4.37339C28.8927 4.20763 29.2705 4.1194 29.6536 4.11431C29.9389 4.10127 30.2238 4.1476 30.4917 4.25061C30.7597 4.35362 31.0053 4.51125 31.2143 4.71431V1.71431ZM31.3375 7.28569C31.3633 7.08776 31.3482 6.88636 31.2931 6.69505C31.238 6.50375 31.1442 6.327 31.0181 6.17672C30.892 6.02644 30.7365 5.90613 30.562 5.82389C30.3876 5.74165 30.1983 5.69941 30.0068 5.7C29.221 5.75953 28.6255 6.46472 28.6679 7.28569C28.6255 8.10666 29.221 8.81194 30.0068 8.87147C30.1983 8.87206 30.3876 8.82982 30.5621 8.74757C30.7365 8.66533 30.8921 8.54501 31.0182 8.39472C31.1443 8.24443 31.238 8.06766 31.2931 7.87635C31.3482 7.68504 31.3633 7.48362 31.3375 7.28569ZM6.57144 1.54284C6.30726 1.54675 6.05434 1.65511 5.86375 1.84605C5.67316 2.03699 5.55911 2.29628 5.54462 2.57156C5.54462 3.16322 6.00435 3.64294 6.57144 3.64294C7.13854 3.64294 7.59809 3.16313 7.59809 2.57156C7.58357 2.29631 7.46952 2.03706 7.27896 1.84614C7.08839 1.65523 6.8355 1.54687 6.57135 1.54294L6.57144 1.54284ZM5.75 10.2857H7.39288V4.28569H5.75V10.2857ZM46 0.857156V11.1428C46 11.3702 45.9135 11.5882 45.7594 11.7489C45.6054 11.9097 45.3964 12 45.1786 12H35.3214C35.1036 12 34.8946 11.9097 34.7406 11.7489C34.5865 11.5882 34.5 11.3702 34.5 11.1428V0.857156C34.5 0.629824 34.5865 0.411803 34.7406 0.251055C34.8946 0.0903073 35.1036 0 35.3214 0L45.1786 0C45.3964 0 45.6054 0.0903073 45.7594 0.251055C45.9135 0.411803 46 0.629824 46 0.857156ZM37.7857 4.28569H36.1429V10.2857H37.7857V4.28569ZM37.9911 2.57147C37.9911 1.97972 37.5313 1.5 36.9643 1.5C36.3972 1.5 35.9375 1.97972 35.9375 2.57147C35.9375 3.16313 36.3972 3.64284 36.9643 3.64284C37.5313 3.64284 37.9911 3.16313 37.9911 2.57147ZM44.3571 7.10569C44.3571 5.22 43.7575 4.11431 42.0079 4.11431C41.6426 4.11435 41.2829 4.20819 40.9606 4.38756C40.6382 4.56693 40.3632 4.82632 40.1596 5.14284V4.28569H38.6071V10.2857H40.25V7.48284C40.2284 7.2794 40.2472 7.07351 40.3052 6.87797C40.3632 6.68243 40.4591 6.50144 40.587 6.34626C40.7149 6.19108 40.8721 6.06503 41.0487 5.97596C41.2253 5.88689 41.4176 5.83671 41.6136 5.82853C42.5664 5.82853 42.7143 6.80569 42.7143 7.48284V10.2857H44.3571V7.10569Z" fill="white"/>
</svg>
