<svg width="13" height="13" viewBox="0 0 18 18" fill="none" xmlns="http://www.w3.org/2000/svg">
<path d="M8.99984 15.6667C7.23173 15.6667 5.53603 14.9643 4.28579 13.7141C3.03555 12.4638 2.33317 10.7681 2.33317 9.00002C2.33317 7.23191 3.03555 5.53622 4.28579 4.28598C5.53603 3.03573 7.23173 2.33335 8.99984 2.33335C10.7679 2.33335 12.4636 3.03573 13.7139 4.28598C14.9641 5.53622 15.6665 7.23191 15.6665 9.00002C15.6665 10.7681 14.9641 12.4638 13.7139 13.7141C12.4636 14.9643 10.7679 15.6667 8.99984 15.6667ZM8.99984 0.666687C7.90549 0.666687 6.82185 0.882235 5.81081 1.30102C4.79976 1.71981 3.8811 2.33364 3.10728 3.10746C1.54448 4.67027 0.666504 6.78988 0.666504 9.00002C0.666504 11.2102 1.54448 13.3298 3.10728 14.8926C3.8811 15.6664 4.79976 16.2802 5.81081 16.699C6.82185 17.1178 7.90549 17.3334 8.99984 17.3334C11.21 17.3334 13.3296 16.4554 14.8924 14.8926C16.4552 13.3298 17.3332 11.2102 17.3332 9.00002C17.3332 7.90567 17.1176 6.82204 16.6988 5.81099C16.28 4.79994 15.6662 3.88129 14.8924 3.10746C14.1186 2.33364 13.1999 1.71981 12.1889 1.30102C11.1778 0.882235 10.0942 0.666687 8.99984 0.666687ZM8.99984 4.83335C7.89477 4.83335 6.83496 5.27234 6.05356 6.05374C5.27216 6.83514 4.83317 7.89495 4.83317 9.00002C4.83317 10.1051 5.27216 11.1649 6.05356 11.9463C6.83496 12.7277 7.89477 13.1667 8.99984 13.1667C10.1049 13.1667 11.1647 12.7277 11.9461 11.9463C12.7275 11.1649 13.1665 10.1051 13.1665 9.00002C13.1665 7.89495 12.7275 6.83514 11.9461 6.05374C11.1647 5.27234 10.1049 4.83335 8.99984 4.83335Z" fill="#B63336"/>
</svg>
