<svg width="24" height="13" viewBox="0 0 24 13" fill="none" xmlns="http://www.w3.org/2000/svg">
<g clip-path="url(#clip0_842_60)">
<path d="M12 12.6187C18.6274 12.6187 24 9.79395 24 6.30937C24 2.8248 18.6274 0 12 0C5.37258 0 0 2.8248 0 6.30937C0 9.79395 5.37258 12.6187 12 12.6187Z" fill="url(#paint0_radial_842_60)"/>
<path d="M12 12.15C18.3685 12.15 23.5312 9.53506 23.5312 6.30938C23.5312 3.08369 18.3685 0.46875 12 0.46875C5.63147 0.46875 0.46875 3.08369 0.46875 6.30938C0.46875 9.53506 5.63147 12.15 12 12.15Z" fill="#6181B6"/>
<path d="M14.3343 8.20315L14.9062 5.2594C15.0375 4.59377 14.925 4.0969 14.5875 3.78752C14.2593 3.48752 13.6968 3.33752 12.8718 3.33752H11.8781L12.1593 1.87502C12.1687 1.81877 12.1593 1.76252 12.1218 1.71565C12.0843 1.66877 12.0375 1.65002 11.9812 1.65002H10.6125C10.5187 1.65002 10.4437 1.71565 10.425 1.80002L9.81559 4.9219C9.75934 4.56565 9.62809 4.26565 9.40309 4.0219C8.99996 3.56252 8.37184 3.32815 7.51871 3.32815H4.88434C4.79059 3.32815 4.71559 3.39377 4.69684 3.47815L3.46871 9.81565C3.45934 9.8719 3.46871 9.92815 3.50621 9.97502C3.54371 10.0219 3.59059 10.0406 3.64684 10.0406H5.02496C5.11871 10.0406 5.19371 9.97502 5.21246 9.89065L5.51246 8.36252H6.53434C7.06871 8.36252 7.52809 8.30627 7.87496 8.19377C8.24059 8.0719 8.56871 7.87502 8.85934 7.60315C9.09371 7.38752 9.29059 7.14377 9.44059 6.88127L9.19684 8.1469C9.18746 8.20315 9.19684 8.2594 9.23434 8.30627C9.27184 8.35315 9.31871 8.3719 9.37496 8.3719H10.7437C10.8375 8.3719 10.9125 8.30627 10.9312 8.2219L11.6062 4.75315H12.5437C12.9468 4.75315 13.0593 4.82815 13.0968 4.86565C13.125 4.89377 13.1812 5.00627 13.1156 5.35315L12.5718 8.15627C12.5625 8.21252 12.5718 8.26877 12.6093 8.31565C12.6468 8.36252 12.6937 8.38127 12.75 8.38127H14.1562C14.2406 8.35315 14.3156 8.28752 14.3343 8.20315ZM7.99684 5.76565C7.91246 6.20627 7.75309 6.52502 7.51871 6.70315C7.28434 6.88127 6.89996 6.97502 6.39371 6.97502H5.78434L6.22496 4.70627H7.01246C7.59371 4.70627 7.82809 4.82815 7.92184 4.93127C8.04371 5.08127 8.07184 5.3719 7.99684 5.76565ZM20.1843 4.0219C19.7812 3.56252 19.1531 3.32815 18.3 3.32815H15.6468C15.5531 3.32815 15.4781 3.39377 15.4593 3.47815L14.2312 9.80627C14.2218 9.86252 14.2312 9.91877 14.2687 9.96565C14.3062 10.0125 14.3531 10.0313 14.4093 10.0313H15.7875C15.8812 10.0313 15.9562 9.96565 15.975 9.88127L16.275 8.35315H17.2968C17.8312 8.35315 18.2906 8.2969 18.6375 8.1844C19.0031 8.06252 19.3312 7.86565 19.6218 7.59377C19.8656 7.36877 20.0718 7.11565 20.2218 6.84377C20.3718 6.5719 20.4843 6.2719 20.55 5.94377C20.7093 5.12815 20.5875 4.49065 20.1843 4.0219ZM18.75 5.76565C18.6656 6.20627 18.5062 6.52502 18.2718 6.70315C18.0375 6.88127 17.6531 6.97502 17.1468 6.97502H16.5375L16.9781 4.70627H17.7656C18.3468 4.70627 18.5812 4.82815 18.675 4.93127C18.8062 5.08127 18.8343 5.3719 18.75 5.76565Z" fill="white"/>
<path d="M7.0125 4.51877C7.5375 4.51877 7.88438 4.61252 8.0625 4.8094C8.24062 5.00627 8.27813 5.3344 8.18438 5.80315C8.09063 6.29065 7.90313 6.6469 7.63125 6.85315C7.35938 7.0594 6.94687 7.16252 6.39375 7.16252H5.55937L6.075 4.51877H7.0125ZM3.65625 9.84377H5.03438L5.3625 8.16565H6.54375C7.06875 8.16565 7.49063 8.1094 7.82812 7.9969C8.16562 7.8844 8.46563 7.70627 8.74688 7.44377C8.98125 7.22815 9.16875 6.99377 9.30938 6.74065C9.45 6.48752 9.55312 6.20627 9.60938 5.8969C9.75938 5.1469 9.64688 4.56565 9.28125 4.14377C8.91562 3.7219 8.33438 3.51565 7.5375 3.51565H4.88437L3.65625 9.84377ZM10.6219 1.83752H11.9906L11.6625 3.51565H12.8812C13.65 3.51565 14.175 3.6469 14.4656 3.91877C14.7563 4.19065 14.8406 4.6219 14.7281 5.2219L14.1562 8.16565H12.7687L13.3125 5.36252C13.3781 5.04377 13.35 4.82815 13.2469 4.71565C13.1438 4.60315 12.9094 4.53752 12.5625 4.53752H11.4656L10.7625 8.16565H9.39375L10.6219 1.83752ZM17.7656 4.51877C18.2906 4.51877 18.6375 4.61252 18.8156 4.8094C18.9937 5.00627 19.0312 5.3344 18.9375 5.80315C18.8438 6.29065 18.6563 6.6469 18.3844 6.85315C18.1125 7.0594 17.7 7.16252 17.1469 7.16252H16.3125L16.8281 4.51877H17.7656ZM14.4094 9.84377H15.7875L16.1156 8.16565H17.2969C17.8219 8.16565 18.2437 8.1094 18.5812 7.9969C18.9187 7.8844 19.2188 7.70627 19.5 7.44377C19.7344 7.22815 19.9219 6.99377 20.0625 6.74065C20.2031 6.48752 20.3062 6.20627 20.3625 5.8969C20.5125 5.1469 20.4 4.56565 20.0344 4.14377C19.6687 3.7219 19.0875 3.51565 18.2906 3.51565H15.6375L14.4094 9.84377Z" fill="white"/>
</g>
<defs>
<radialGradient id="paint0_radial_842_60" cx="0" cy="0" r="1" gradientUnits="userSpaceOnUse" gradientTransform="translate(7.20483 2.21883) scale(15.7589)">
<stop stop-color="white"/>
<stop offset="0.5" stop-color="#4C6B97"/>
<stop offset="1" stop-color="#231F20"/>
</radialGradient>
<clipPath id="clip0_842_60">
<rect width="24" height="12.6562" fill="white"/>
</clipPath>
</defs>
</svg>
