<svg width="38" height="29" viewBox="0 0 38 29" fill="none" xmlns="http://www.w3.org/2000/svg">
<path d="M34.452 2.9145C36.5979 5.19367 37.75 7.74992 37.75 11.8937C37.75 19.1853 32.6312 25.7208 25.1875 28.952L23.327 26.0812C30.275 22.3228 31.6333 17.4458 32.175 14.3708C31.0562 14.9499 29.5916 15.152 28.1562 15.0187C24.3979 14.6708 21.4354 11.5853 21.4354 7.74992C21.4354 5.81605 22.2036 3.96138 23.5711 2.59393C24.9385 1.22648 26.7932 0.458252 28.727 0.458252C30.9625 0.458252 33.1 1.47908 34.452 2.9145ZM13.6187 2.9145C15.7645 5.19367 16.9166 7.74992 16.9166 11.8937C16.9166 19.1853 11.7979 25.7208 4.35413 28.952L2.49371 26.0812C9.44163 22.3228 10.8 17.4458 11.3416 14.3708C10.2229 14.9499 8.75829 15.152 7.32288 15.0187C3.56454 14.6708 0.604126 11.5853 0.604126 7.74992C0.604126 5.81605 1.37235 3.96138 2.7398 2.59393C4.10726 1.22648 5.96192 0.458252 7.89579 0.458252C10.1312 0.458252 12.2687 1.47908 13.6208 2.9145H13.6187Z" fill="black"/>
</svg>
