<svg width="61" height="61" viewBox="0 0 61 61" fill="none" xmlns="http://www.w3.org/2000/svg">
<circle cx="30.5" cy="30.5" r="30.5" transform="matrix(-1 0 0 1 61 0)" fill="white" fill-opacity="0.68"/>
<path d="M47.0607 29.9393C47.6464 30.5251 47.6464 31.4749 47.0607 32.0607L37.5147 41.6066C36.9289 42.1924 35.9792 42.1924 35.3934 41.6066C34.8076 41.0208 34.8076 40.0711 35.3934 39.4853L43.8787 31L35.3934 22.5147C34.8076 21.9289 34.8076 20.9792 35.3934 20.3934C35.9792 19.8076 36.9289 19.8076 37.5147 20.3934L47.0607 29.9393ZM15 29.5L46 29.5L46 32.5L15 32.5L15 29.5Z" fill="black"/>
</svg>
